<mxfile host="app.diagrams.net" agent="Mozilla/5.0 (Windows NT 10.0; Win64; x64) AppleWebKit/537.36 (KHTML, like Gecko) Chrome/131.0.0.0 Safari/537.36" version="25.0.3">
  <diagram name="PÃ¡gina-1" id="3xbAxXGXIHosD-AfUfzv">
    <mxGraphModel dx="1195" dy="650" grid="1" gridSize="10" guides="1" tooltips="1" connect="1" arrows="1" fold="1" page="1" pageScale="1" pageWidth="827" pageHeight="1169" math="0" shadow="0">
      <root>
        <mxCell id="0" />
        <mxCell id="1" parent="0" />
        <mxCell id="01NSUrSLiTamQ9fBvPUP-1" value="contactos" style="whiteSpace=wrap;html=1;align=center;fontSize=20;fillColor=#CCFF99;" vertex="1" parent="1">
          <mxGeometry x="360" y="380" width="100" height="40" as="geometry" />
        </mxCell>
        <mxCell id="01NSUrSLiTamQ9fBvPUP-3" value="&lt;span style=&quot;font-size: 19px;&quot;&gt;cod_contacto&lt;/span&gt;" style="ellipse;whiteSpace=wrap;html=1;align=center;fontStyle=4;" vertex="1" parent="1">
          <mxGeometry x="200" y="250" width="140" height="50" as="geometry" />
        </mxCell>
        <mxCell id="01NSUrSLiTamQ9fBvPUP-5" value="nombre" style="ellipse;whiteSpace=wrap;html=1;align=center;fontSize=19;" vertex="1" parent="1">
          <mxGeometry x="360" y="255" width="100" height="40" as="geometry" />
        </mxCell>
        <mxCell id="01NSUrSLiTamQ9fBvPUP-6" value="" style="endArrow=none;html=1;rounded=0;exitX=0.6;exitY=1;exitDx=0;exitDy=0;exitPerimeter=0;entryX=0.4;entryY=0.25;entryDx=0;entryDy=0;entryPerimeter=0;" edge="1" parent="1" source="01NSUrSLiTamQ9fBvPUP-5" target="01NSUrSLiTamQ9fBvPUP-1">
          <mxGeometry relative="1" as="geometry">
            <mxPoint x="330" y="420" as="sourcePoint" />
            <mxPoint x="490" y="420" as="targetPoint" />
          </mxGeometry>
        </mxCell>
        <mxCell id="01NSUrSLiTamQ9fBvPUP-9" value="telefono" style="ellipse;whiteSpace=wrap;html=1;align=center;fontSize=19;" vertex="1" parent="1">
          <mxGeometry x="1020" y="257.5" width="110" height="52.5" as="geometry" />
        </mxCell>
        <mxCell id="01NSUrSLiTamQ9fBvPUP-11" value="mail" style="ellipse;whiteSpace=wrap;html=1;align=center;fontSize=19;" vertex="1" parent="1">
          <mxGeometry x="480" y="440" width="90" height="40" as="geometry" />
        </mxCell>
        <mxCell id="01NSUrSLiTamQ9fBvPUP-12" value="apellidos" style="ellipse;whiteSpace=wrap;html=1;align=center;fontSize=19;" vertex="1" parent="1">
          <mxGeometry x="480" y="255" width="100" height="40" as="geometry" />
        </mxCell>
        <mxCell id="01NSUrSLiTamQ9fBvPUP-13" value="direccion" style="ellipse;whiteSpace=wrap;html=1;align=center;fontSize=19;" vertex="1" parent="1">
          <mxGeometry x="160" y="410" width="100" height="40" as="geometry" />
        </mxCell>
        <mxCell id="01NSUrSLiTamQ9fBvPUP-14" value="" style="endArrow=none;html=1;rounded=0;entryX=0.392;entryY=1.063;entryDx=0;entryDy=0;entryPerimeter=0;exitX=0.75;exitY=0;exitDx=0;exitDy=0;" edge="1" parent="1" source="01NSUrSLiTamQ9fBvPUP-1" target="01NSUrSLiTamQ9fBvPUP-12">
          <mxGeometry relative="1" as="geometry">
            <mxPoint x="330" y="420" as="sourcePoint" />
            <mxPoint x="490" y="420" as="targetPoint" />
          </mxGeometry>
        </mxCell>
        <mxCell id="01NSUrSLiTamQ9fBvPUP-16" value="" style="endArrow=none;html=1;rounded=0;exitX=0.867;exitY=1.063;exitDx=0;exitDy=0;exitPerimeter=0;entryX=0.343;entryY=0.104;entryDx=0;entryDy=0;entryPerimeter=0;" edge="1" parent="1" source="01NSUrSLiTamQ9fBvPUP-1" target="01NSUrSLiTamQ9fBvPUP-11">
          <mxGeometry relative="1" as="geometry">
            <mxPoint x="330" y="420" as="sourcePoint" />
            <mxPoint x="490" y="420" as="targetPoint" />
          </mxGeometry>
        </mxCell>
        <mxCell id="01NSUrSLiTamQ9fBvPUP-17" value="" style="endArrow=none;html=1;rounded=0;exitX=0.7;exitY=0;exitDx=0;exitDy=0;exitPerimeter=0;entryX=0.133;entryY=1.083;entryDx=0;entryDy=0;entryPerimeter=0;" edge="1" parent="1" source="01NSUrSLiTamQ9fBvPUP-13" target="01NSUrSLiTamQ9fBvPUP-1">
          <mxGeometry relative="1" as="geometry">
            <mxPoint x="330" y="420" as="sourcePoint" />
            <mxPoint x="490" y="420" as="targetPoint" />
          </mxGeometry>
        </mxCell>
        <mxCell id="01NSUrSLiTamQ9fBvPUP-19" value="" style="endArrow=none;html=1;rounded=0;entryX=0.308;entryY=0;entryDx=0;entryDy=0;entryPerimeter=0;" edge="1" parent="1" source="01NSUrSLiTamQ9fBvPUP-3" target="01NSUrSLiTamQ9fBvPUP-1">
          <mxGeometry relative="1" as="geometry">
            <mxPoint x="330" y="420" as="sourcePoint" />
            <mxPoint x="490" y="420" as="targetPoint" />
          </mxGeometry>
        </mxCell>
        <mxCell id="01NSUrSLiTamQ9fBvPUP-20" value="telefonos" style="whiteSpace=wrap;html=1;align=center;fontSize=19;fillColor=#CCFF99;" vertex="1" parent="1">
          <mxGeometry x="900" y="380" width="100" height="40" as="geometry" />
        </mxCell>
        <mxCell id="01NSUrSLiTamQ9fBvPUP-21" value="tienen" style="shape=rhombus;perimeter=rhombusPerimeter;whiteSpace=wrap;html=1;align=center;fontSize=19;fillColor=#FFCE9F;" vertex="1" parent="1">
          <mxGeometry x="640" y="370" width="120" height="60" as="geometry" />
        </mxCell>
        <mxCell id="01NSUrSLiTamQ9fBvPUP-22" value="" style="endArrow=none;html=1;rounded=0;entryX=0.063;entryY=0.472;entryDx=0;entryDy=0;entryPerimeter=0;exitX=1;exitY=0.5;exitDx=0;exitDy=0;" edge="1" parent="1" source="01NSUrSLiTamQ9fBvPUP-1" target="01NSUrSLiTamQ9fBvPUP-21">
          <mxGeometry relative="1" as="geometry">
            <mxPoint x="490" y="398" as="sourcePoint" />
            <mxPoint x="620" y="399.58" as="targetPoint" />
          </mxGeometry>
        </mxCell>
        <mxCell id="01NSUrSLiTamQ9fBvPUP-23" value="&lt;font style=&quot;font-size: 19px;&quot;&gt;N&lt;/font&gt;" style="resizable=0;html=1;whiteSpace=wrap;align=right;verticalAlign=bottom;" connectable="0" vertex="1" parent="01NSUrSLiTamQ9fBvPUP-22">
          <mxGeometry x="1" relative="1" as="geometry" />
        </mxCell>
        <mxCell id="01NSUrSLiTamQ9fBvPUP-24" value="" style="endArrow=none;html=1;rounded=0;exitX=0;exitY=0.5;exitDx=0;exitDy=0;" edge="1" parent="1" source="01NSUrSLiTamQ9fBvPUP-20">
          <mxGeometry relative="1" as="geometry">
            <mxPoint x="900" y="399.58" as="sourcePoint" />
            <mxPoint x="760" y="400" as="targetPoint" />
            <Array as="points">
              <mxPoint x="790" y="399.58" />
            </Array>
          </mxGeometry>
        </mxCell>
        <mxCell id="01NSUrSLiTamQ9fBvPUP-25" value="&lt;span style=&quot;font-size: 19px;&quot;&gt;M&lt;/span&gt;" style="resizable=0;html=1;whiteSpace=wrap;align=right;verticalAlign=bottom;" connectable="0" vertex="1" parent="01NSUrSLiTamQ9fBvPUP-24">
          <mxGeometry x="1" relative="1" as="geometry" />
        </mxCell>
        <mxCell id="01NSUrSLiTamQ9fBvPUP-26" value="cod_telefono" style="ellipse;whiteSpace=wrap;html=1;align=center;fontStyle=4;fontSize=19;" vertex="1" parent="1">
          <mxGeometry x="840" y="255" width="130" height="45" as="geometry" />
        </mxCell>
        <mxCell id="01NSUrSLiTamQ9fBvPUP-27" value="" style="endArrow=none;html=1;rounded=0;exitX=0.883;exitY=0.021;exitDx=0;exitDy=0;exitPerimeter=0;entryX=0.5;entryY=1;entryDx=0;entryDy=0;" edge="1" parent="1" source="01NSUrSLiTamQ9fBvPUP-20" target="01NSUrSLiTamQ9fBvPUP-9">
          <mxGeometry relative="1" as="geometry">
            <mxPoint x="1000" y="429.17" as="sourcePoint" />
            <mxPoint x="1160" y="429.17" as="targetPoint" />
          </mxGeometry>
        </mxCell>
        <mxCell id="01NSUrSLiTamQ9fBvPUP-29" value="" style="endArrow=none;html=1;rounded=0;entryX=0.325;entryY=0.021;entryDx=0;entryDy=0;entryPerimeter=0;exitX=0.5;exitY=1;exitDx=0;exitDy=0;" edge="1" parent="1" source="01NSUrSLiTamQ9fBvPUP-26" target="01NSUrSLiTamQ9fBvPUP-20">
          <mxGeometry relative="1" as="geometry">
            <mxPoint x="760" y="340" as="sourcePoint" />
            <mxPoint x="920" y="340" as="targetPoint" />
          </mxGeometry>
        </mxCell>
      </root>
    </mxGraphModel>
  </diagram>
</mxfile>
